<svg xmlns="http://www.w3.org/2000/svg" width="32" height="33" fill="none" viewBox="0 0 32 33">
  <path fill="#fff" d="m.396 32.521 2.83-9.608a17.309 17.309 0 0 1-1.175-3.288 14.452 14.452 0 0 1-.419-3.489c0-2.1.399-4.073 1.196-5.92.797-1.847 1.874-3.448 3.23-4.803 1.355-1.356 2.956-2.432 4.804-3.23 1.846-.797 3.82-1.196 5.919-1.196 2.1 0 4.073.4 5.92 1.196 1.847.798 3.448 1.874 4.804 3.23 1.355 1.355 2.431 2.956 3.229 4.803.797 1.847 1.196 3.82 1.196 5.92s-.399 4.073-1.196 5.92c-.798 1.847-1.874 3.449-3.23 4.804-1.355 1.356-2.956 2.432-4.802 3.23-1.848.797-3.822 1.195-5.921 1.195a14.51 14.51 0 0 1-3.49-.418 17.38 17.38 0 0 1-3.287-1.176L.396 32.52Zm3.548-3.548 5.103-1.515a3.878 3.878 0 0 1 1.137-.14c.358.014.723.114 1.096.3.85.425 1.74.744 2.67.956.93.213 1.874.32 2.83.32 3.562 0 6.579-1.236 9.05-3.708 2.472-2.472 3.708-5.488 3.708-9.05 0-3.561-1.236-6.577-3.708-9.05-2.471-2.47-5.488-3.707-9.05-3.707-3.56 0-6.577 1.236-9.049 3.708-2.471 2.472-3.707 5.488-3.707 9.05 0 .956.106 1.9.319 2.83.212.93.531 1.82.957 2.67.186.346.286.711.3 1.096.012.386-.035.765-.14 1.137l-1.516 5.103Zm11.64-6.857h2.393v-4.784h4.784V14.94h-4.784v-4.784h-2.392v4.784H10.8v2.392h4.784v4.784Z"/>
</svg>
