<svg xmlns="http://www.w3.org/2000/svg" width="34" height="31" fill="none" viewBox="0 0 34 31">
  <path stroke="#fff" stroke-width="3" d="M31.779 9.652a9.51 9.51 0 0 1-.548 3.18c-.357 1.013-1.011 2.193-2.017 3.547s-2.382 2.912-4.149 4.678c-1.773 1.774-4.028 3.894-6.768 6.363l-1.367 1.226-1.367-1.226c-2.74-2.47-4.995-4.59-6.769-6.363-1.766-1.766-3.143-3.324-4.148-4.677-1.006-1.354-1.66-2.535-2.016-3.547v-.001a9.483 9.483 0 0 1-.549-3.18c0-2.188.717-3.938 2.136-5.356C5.635 2.877 7.385 2.16 9.573 2.16c1.197 0 2.329.252 3.41.758a8.194 8.194 0 0 1 2.804 2.147L16.93 6.41l1.143-1.345a8.194 8.194 0 0 1 2.803-2.147 7.932 7.932 0 0 1 3.41-.758c2.188 0 3.938.717 5.357 2.136 1.418 1.418 2.136 3.168 2.136 5.356Z"/>
</svg>
