<svg xmlns="http://www.w3.org/2000/svg" width="23" height="21" fill="none" viewBox="0 0 23 21">
  <path fill="#fff" d="M8.977 13.233h7.838a.801.801 0 0 0 .825-.825.801.801 0 0 0-.825-.825h-6.188l-1.65 1.65Zm-4.125 0h1.43c.11 0 .21-.023.303-.069a1.56 1.56 0 0 0 .275-.178l6.682-6.6a.56.56 0 0 0 .165-.413.56.56 0 0 0-.165-.412L12.03 4.186a.467.467 0 0 0-.344-.138.466.466 0 0 0-.344.138L4.687 10.95a1.558 1.558 0 0 0-.179.275.667.667 0 0 0-.068.302v1.293c0 .11.04.206.123.289a.396.396 0 0 0 .29.123ZM.04 20.053V1.683c0-.421.165-.802.495-1.141.33-.34.715-.509 1.155-.509h18.7c.421 0 .802.17 1.14.509.34.34.51.72.51 1.141v14.3c0 .422-.17.802-.51 1.142-.338.339-.719.508-1.14.508H4.44l-2.998 2.998c-.257.256-.555.316-.894.178-.339-.137-.508-.389-.508-.756Zm1.65-2.007 2.062-2.063H20.39v-14.3H1.69v16.363Zm0-16.363v16.363V1.683Z"/>
</svg>
