<svg xmlns="http://www.w3.org/2000/svg" width="31" height="30" fill="none" viewBox="0 0 31 30">
  <mask id="a" width="31" height="30" x="0" y="0" maskUnits="userSpaceOnUse" style="mask-type:alpha">
    <path fill="#868686" d="M.319 0h30v30h-30z"/>
  </mask>
  <g mask="url(#a)">
    <path fill="#868686" d="M7.07 25.625c-.313 0-.579-.11-.797-.328a1.086 1.086 0 0 1-.329-.797V14.062l-1.593 1.22a.885.885 0 0 1-1.313-.188 1.03 1.03 0 0 1-.171-.704c.03-.24.15-.442.359-.609l11.406-8.719c.104-.062.214-.12.329-.172a.86.86 0 0 1 .718 0c.114.053.224.11.328.173l11.406 8.718c.208.167.328.37.359.609a1.03 1.03 0 0 1-.171.704.922.922 0 0 1-.625.359.885.885 0 0 1-.688-.203l-1.594-1.188V24.5c0 .313-.109.578-.327.797-.22.219-.485.328-.798.328H7.07Zm.75-1.875h15V12.625l-7.5-5.719-7.5 5.719V23.75Zm2.5-5.156c.312 0 .572-.104.78-.313a1.06 1.06 0 0 0 .313-.781 1.06 1.06 0 0 0-.312-.781 1.06 1.06 0 0 0-.782-.313 1.06 1.06 0 0 0-.78.313 1.06 1.06 0 0 0-.313.781c0 .313.104.573.312.781.208.209.469.313.781.313Zm5 0c.312 0 .572-.104.78-.313a1.06 1.06 0 0 0 .313-.781 1.06 1.06 0 0 0-.312-.781 1.06 1.06 0 0 0-.782-.313 1.06 1.06 0 0 0-.78.313 1.06 1.06 0 0 0-.313.781c0 .313.104.573.312.781.208.209.469.313.781.313Zm5 0c.312 0 .572-.104.78-.313a1.06 1.06 0 0 0 .313-.781 1.06 1.06 0 0 0-.312-.781 1.06 1.06 0 0 0-.782-.313 1.06 1.06 0 0 0-.78.313 1.06 1.06 0 0 0-.313.781c0 .313.104.573.312.781.208.209.469.313.781.313Z"/>
  </g>
</svg>
