<svg xmlns="http://www.w3.org/2000/svg" width="23" height="22" fill="none" viewBox="0 0 23 22">
  <path fill="#fff" d="M4.47 17.188c1.156-.806 2.302-1.425 3.438-1.856a10.254 10.254 0 0 1 3.658-.646c1.301 0 2.525.215 3.671.646 1.146.431 2.296 1.05 3.451 1.856.807-.99 1.38-1.989 1.719-2.997a9.938 9.938 0 0 0 .509-3.19c0-2.658-.894-4.881-2.681-6.669-1.788-1.787-4.01-2.681-6.67-2.681-2.658 0-4.88.894-6.668 2.681-1.787 1.788-2.681 4.01-2.681 6.669a9.7 9.7 0 0 0 .522 3.19c.349 1.008.926 2.007 1.733 2.997Zm7.096-5.362c-1.064 0-1.957-.362-2.681-1.086-.725-.725-1.087-1.618-1.087-2.682 0-1.063.362-1.957 1.087-2.68.724-.725 1.617-1.087 2.68-1.087 1.064 0 1.958.362 2.682 1.086.724.724 1.086 1.618 1.086 2.681 0 1.064-.362 1.957-1.086 2.682-.724.724-1.618 1.086-2.681 1.086Zm0 10.175c-1.504 0-2.924-.289-4.263-.866a11.158 11.158 0 0 1-3.506-2.365c-1-1-1.787-2.168-2.365-3.507a10.643 10.643 0 0 1-.866-4.262c0-1.522.289-2.947.866-4.276a11.201 11.201 0 0 1 2.365-3.493A11.18 11.18 0 0 1 7.303.867a10.644 10.644 0 0 1 4.263-.866c1.521 0 2.947.289 4.276.866a11.2 11.2 0 0 1 3.492 2.365c1 1 1.788 2.163 2.366 3.493.577 1.329.866 2.754.866 4.276a10.65 10.65 0 0 1-.866 4.262 11.158 11.158 0 0 1-2.366 3.507 11.21 11.21 0 0 1-3.492 2.365c-1.33.577-2.755.866-4.276.866Zm0-1.65c1.008 0 1.993-.147 2.956-.44.963-.293 1.911-.807 2.846-1.54a11.97 11.97 0 0 0-2.86-1.513 8.665 8.665 0 0 0-2.942-.522c-.99 0-1.971.174-2.943.522-.971.349-1.925.853-2.86 1.513.935.733 1.884 1.247 2.847 1.54.962.293 1.947.44 2.956.44Zm0-10.175c.623 0 1.132-.197 1.526-.591.394-.395.591-.903.591-1.527 0-.623-.197-1.132-.591-1.526-.394-.394-.903-.591-1.526-.591s-1.132.197-1.527.591c-.394.394-.59.903-.59 1.526 0 .624.196 1.133.59 1.527.395.394.904.59 1.527.59Z"/>
</svg>
