<svg xmlns="http://www.w3.org/2000/svg" width="22" height="23" fill="none" viewBox="0 0 22 23">
  <path fill="#fff" d="M9.47 22.527a1 1 0 0 1-.988-.843l-.324-2.043a1.102 1.102 0 0 0-.632-.807 8.446 8.446 0 0 1-1.078-.614c-.316-.211-.719-.267-1.065-.11l-1.846.846a1 1 0 0 1-1.286-.416L.585 15.602a1 1 0 0 1 .28-1.3l1.792-1.311c.279-.204.405-.555.39-.9a11.866 11.866 0 0 1 0-1.127c.015-.345-.111-.696-.39-.9L.864 8.754a1 1 0 0 1-.28-1.301l1.667-2.938a1 1 0 0 1 1.286-.416l1.846.845c.346.158.75.102 1.065-.11.162-.108.335-.215.518-.319a6.66 6.66 0 0 1 .523-.27c.345-.159.614-.462.673-.837l.32-2.036A1 1 0 0 1 9.47.527h3.352a1 1 0 0 1 .988.844l.324 2.043c.056.357.304.652.633.803.185.084.376.18.572.284.171.092.33.187.479.287.336.226.766.304 1.134.136l1.802-.825a1 1 0 0 1 1.286.416l1.661 2.928a1 1 0 0 1-.29 1.308l-1.75 1.248c-.295.21-.432.575-.417.937a13.61 13.61 0 0 1 0 1.169c-.016.354.116.71.404.918l1.771 1.28a1 1 0 0 1 .285 1.304L20.04 18.54a1 1 0 0 1-1.286.416l-1.846-.845a1.08 1.08 0 0 0-1.062.114c-.16.11-.328.22-.507.329a5.38 5.38 0 0 1-.527.284c-.348.162-.625.466-.685.845l-.318 2.001a1 1 0 0 1-.987.843H9.469Zm1.676-7.425c.99 0 1.833-.348 2.53-1.045a3.446 3.446 0 0 0 1.045-2.53 3.45 3.45 0 0 0-1.045-2.53 3.446 3.446 0 0 0-2.53-1.045c-.99 0-1.834.349-2.53 1.045a3.446 3.446 0 0 0-1.045 2.53c0 .99.348 1.834 1.045 2.53a3.446 3.446 0 0 0 2.53 1.045Zm0-1.65c-.532 0-.986-.187-1.362-.563a1.855 1.855 0 0 1-.563-1.361c0-.532.188-.986.563-1.362.376-.376.83-.564 1.362-.564.531 0 .985.188 1.36.564.377.376.565.83.565 1.361 0 .532-.188.986-.564 1.362-.376.376-.83.564-1.361.564Zm-1.32 6.55a1 1 0 0 0 .992.876h.655a1 1 0 0 0 .992-.877l.19-1.518c.052-.413.356-.743.747-.883.365-.13.718-.294 1.057-.49a7.09 7.09 0 0 0 .968-.67c.317-.261.751-.35 1.128-.187l1.459.634a1 1 0 0 0 1.272-.432l.232-.417a1 1 0 0 0-.283-1.292l-1.341-.985a1.054 1.054 0 0 1-.4-1.039 6.145 6.145 0 0 0 .114-1.195 7.664 7.664 0 0 0-.09-1.159c-.069-.415.069-.849.408-1.098l1.31-.961a1 1 0 0 0 .282-1.292l-.232-.417a1 1 0 0 0-1.272-.432l-1.417.615c-.398.173-.855.063-1.177-.226a6.05 6.05 0 0 0-.92-.68 4.53 4.53 0 0 0-1.014-.454c-.431-.133-.784-.476-.84-.923l-.18-1.447a1 1 0 0 0-.993-.876h-.655a1 1 0 0 0-.992.876L9.64 4.547c-.054.425-.375.76-.78.896-.368.123-.72.281-1.056.474a6.082 6.082 0 0 0-.933.661c-.322.278-.772.38-1.163.211l-1.43-.62a1 1 0 0 0-1.273.431l-.231.417a1 1 0 0 0 .282 1.292l1.341.985c.324.237.47.644.4 1.039l-.045.273a6.142 6.142 0 0 0 0 1.843l.045.273c.07.395-.076.802-.4 1.04l-1.341.984a1 1 0 0 0-.282 1.292l.231.417a1 1 0 0 0 1.273.432l1.459-.634c.376-.163.81-.074 1.127.187.302.249.625.472.968.67.34.196.692.36 1.057.49.392.14.696.47.747.883L9.826 20Z"/>
</svg>
