<svg xmlns="http://www.w3.org/2000/svg" width="32" height="29" fill="none" viewBox="0 0 32 29">
  <path fill="#fff" d="M.559 28.273V10.07L12.694.93 20.5 6.834c-.459.081-.904.21-1.335.384a5.86 5.86 0 0 0-1.254.709l-5.218-3.965-9.708 7.322v14.562h6.876v2.427H.56Zm12.54 0v-2.589c0-.485.128-.937.384-1.356.256-.417.586-.76.99-1.03a16.03 16.03 0 0 1 3.824-1.597 15.503 15.503 0 0 1 4.105-.547 15.5 15.5 0 0 1 4.106.547c1.335.363 2.609.896 3.822 1.597.405.27.735.613.992 1.03.256.419.383.87.383 1.356v2.59H13.098Zm2.588-2.427h13.43v-.445a13.578 13.578 0 0 0-3.236-1.354 13.09 13.09 0 0 0-3.48-.466 13.09 13.09 0 0 0-3.478.466 13.58 13.58 0 0 0-3.236 1.354v.445Zm6.715-7.2c-1.24 0-2.292-.431-3.155-1.294s-1.295-1.915-1.295-3.156c0-1.24.432-2.292 1.295-3.155s1.914-1.294 3.155-1.294c1.24 0 2.292.431 3.155 1.294s1.294 1.915 1.294 3.155c0 1.24-.431 2.293-1.294 3.156s-1.915 1.294-3.155 1.294Zm0-2.427c.566 0 1.045-.195 1.437-.586.39-.391.585-.87.585-1.437 0-.566-.195-1.045-.585-1.436a1.957 1.957 0 0 0-1.437-.586 1.95 1.95 0 0 0-1.435.586 1.95 1.95 0 0 0-.588 1.436c0 .567.196 1.046.588 1.437.39.39.869.586 1.435.586Z"/>
</svg>
