<svg xmlns="http://www.w3.org/2000/svg" width="203" height="202" fill="none" viewBox="0 0 203 202">
  <g filter="url(#a)">
    <circle cx="101.5" cy="97.215" r="80.533" fill="url(#b)"/>
    <ellipse cx="101.5" cy="72.412" fill="#fff" rx="32.065" ry="31.766"/>
    <path fill="#fff" d="M38.396 147.254c10.446-24.293 34.767-41.324 63.104-41.324 28.336 0 52.658 17.031 63.104 41.324-14.753 18.579-37.537 30.494-63.104 30.494s-48.351-11.915-63.104-30.494Z"/>
    <path fill="#000" fill-opacity=".4" d="M76.799 139.273h-2.91l-.5 1.42h-1.19l2.49-6.96h1.32l2.49 6.96h-1.2l-.5-1.42Zm-.32-.93-1.13-3.23-1.14 3.23h2.27Zm3.122-.43c0-.553.114-1.043.34-1.47a2.534 2.534 0 0 1 2.27-1.35c.36 0 .714.08 1.06.24.354.153.634.36.84.62v-2.66h1.15v7.4h-1.15v-.83a2.119 2.119 0 0 1-.78.66c-.326.173-.703.26-1.13.26-.48 0-.92-.12-1.32-.36a2.676 2.676 0 0 1-.94-1.02 3.206 3.206 0 0 1-.34-1.49Zm4.51.02c0-.38-.08-.71-.24-.99a1.606 1.606 0 0 0-1.43-.86c-.293 0-.566.073-.82.22-.253.14-.46.35-.62.63-.153.273-.23.6-.23.98s.077.713.23 1c.16.287.367.507.62.66a1.641 1.641 0 0 0 1.64 0 1.61 1.61 0 0 0 .61-.64c.16-.287.24-.62.24-1Zm2.668-.02c0-.553.113-1.043.34-1.47a2.535 2.535 0 0 1 2.27-1.35c.36 0 .713.08 1.06.24.353.153.633.36.84.62v-2.66h1.15v7.4h-1.15v-.83a2.119 2.119 0 0 1-.78.66c-.327.173-.704.26-1.13.26-.48 0-.92-.12-1.32-.36a2.677 2.677 0 0 1-.94-1.02 3.206 3.206 0 0 1-.34-1.49Zm4.51.02c0-.38-.08-.71-.24-.99a1.606 1.606 0 0 0-1.43-.86c-.294 0-.567.073-.82.22-.254.14-.46.35-.62.63-.154.273-.23.6-.23.98s.076.713.23 1c.16.287.366.507.62.66a1.641 1.641 0 0 0 1.64 0c.253-.147.456-.36.61-.64.16-.287.24-.62.24-1Zm7.185-1.94c.193-.253.456-.467.79-.64.333-.173.71-.26 1.13-.26.48 0 .916.12 1.31.36.4.233.713.563.94.99.226.427.34.917.34 1.47 0 .553-.114 1.05-.34 1.49a2.58 2.58 0 0 1-.94 1.02c-.394.24-.83.36-1.31.36-.42 0-.794-.083-1.12-.25a2.569 2.569 0 0 1-.8-.64v3.42h-1.14v-8.13h1.14v.81Zm3.35 1.92c0-.38-.08-.707-.24-.98a1.53 1.53 0 0 0-.62-.63 1.642 1.642 0 0 0-1.64 0c-.254.147-.46.36-.62.64-.154.28-.23.61-.23.99s.076.713.23 1c.16.28.366.493.62.64a1.642 1.642 0 0 0 1.64 0c.26-.153.466-.373.62-.66.16-.287.24-.62.24-1Zm3.827-1.93c.167-.28.387-.497.66-.65.28-.16.61-.24.99-.24v1.18h-.29c-.447 0-.787.113-1.02.34-.227.227-.34.62-.34 1.18v2.9h-1.14v-5.51h1.14v.8Zm5.488 4.8c-.52 0-.99-.117-1.41-.35-.42-.24-.75-.573-.99-1-.24-.433-.36-.933-.36-1.5 0-.56.123-1.057.37-1.49a2.55 2.55 0 0 1 1.01-1c.426-.233.903-.35 1.43-.35.526 0 1.003.117 1.43.35.426.233.763.567 1.01 1 .246.433.37.93.37 1.49 0 .56-.127 1.057-.38 1.49-.254.433-.6.77-1.04 1.01-.434.233-.914.35-1.44.35Zm0-.99c.293 0 .566-.07.82-.21.26-.14.47-.35.63-.63.16-.28.24-.62.24-1.02s-.077-.737-.23-1.01a1.552 1.552 0 0 0-.61-.63 1.671 1.671 0 0 0-.82-.21c-.294 0-.567.07-.82.21-.247.14-.444.35-.59.63-.147.273-.22.61-.22 1.01 0 .593.15 1.053.45 1.38.306.32.69.48 1.15.48Zm6.697-3.68h-1.02v4.58h-1.15v-4.58h-.65v-.93h.65v-.39c0-.633.166-1.093.5-1.38.34-.293.87-.44 1.59-.44v.95c-.347 0-.59.067-.73.2-.14.127-.21.35-.21.67v.39h1.02v.93Zm1.99-1.66a.706.706 0 0 1-.52-.21.706.706 0 0 1-.21-.52c0-.207.07-.38.21-.52.14-.14.313-.21.52-.21.2 0 .37.07.51.21.14.14.21.313.21.52 0 .207-.07.38-.21.52-.14.14-.31.21-.51.21Zm.56.73v5.51h-1.14v-5.51h1.14Zm3.037-1.89v7.4h-1.14v-7.4h1.14Zm6.947 4.51c0 .207-.014.393-.04.56h-4.21c.033.44.196.793.49 1.06.293.267.653.4 1.08.4.613 0 1.046-.257 1.3-.77h1.23a2.5 2.5 0 0 1-.91 1.25c-.434.32-.974.48-1.62.48-.527 0-1-.117-1.42-.35a2.609 2.609 0 0 1-.98-1c-.234-.433-.35-.933-.35-1.5s.113-1.063.34-1.49c.233-.433.556-.767.97-1 .42-.233.9-.35 1.44-.35.52 0 .983.113 1.39.34.406.227.723.547.95.96.226.407.34.877.34 1.41Zm-1.19-.36c-.007-.42-.157-.757-.45-1.01-.294-.253-.657-.38-1.09-.38-.394 0-.73.127-1.01.38-.28.247-.447.583-.5 1.01h3.05Zm-44.807 13.55c.193-.253.456-.467.79-.64.333-.173.71-.26 1.13-.26.48 0 .916.12 1.31.36.4.233.713.563.94.99.226.427.34.917.34 1.47 0 .553-.114 1.05-.34 1.49a2.58 2.58 0 0 1-.94 1.02c-.394.24-.83.36-1.31.36-.42 0-.794-.083-1.12-.25a2.57 2.57 0 0 1-.8-.64v3.42h-1.14v-8.13h1.14v.81Zm3.35 1.92c0-.38-.08-.707-.24-.98a1.53 1.53 0 0 0-.62-.63 1.642 1.642 0 0 0-1.64 0c-.254.147-.46.36-.62.64-.154.28-.23.61-.23.99s.076.713.23 1c.16.28.366.493.62.64a1.642 1.642 0 0 0 1.64 0c.26-.153.466-.373.62-.66.16-.287.24-.62.24-1Zm3.267-3.46a.706.706 0 0 1-.52-.21.706.706 0 0 1-.21-.52c0-.207.07-.38.21-.52.14-.14.313-.21.52-.21.2 0 .37.07.51.21.14.14.21.313.21.52 0 .207-.07.38-.21.52-.14.14-.31.21-.51.21Zm.56.73v5.51h-1.14v-5.51h1.14Zm1.517 2.75c0-.567.113-1.063.34-1.49.233-.433.553-.767.96-1 .406-.233.873-.35 1.4-.35.666 0 1.216.16 1.65.48.44.313.736.763.89 1.35h-1.23a1.3 1.3 0 0 0-.48-.64c-.22-.153-.497-.23-.83-.23-.467 0-.84.167-1.12.5-.274.327-.41.787-.41 1.38 0 .593.136 1.057.41 1.39.28.333.653.5 1.12.5.66 0 1.096-.29 1.31-.87h1.23c-.16.56-.46 1.007-.9 1.34-.44.327-.987.49-1.64.49-.527 0-.994-.117-1.4-.35a2.564 2.564 0 0 1-.96-1c-.227-.433-.34-.933-.34-1.5Zm8.106-1.82v3.05c0 .207.046.357.14.45.1.087.266.13.5.13h.7v.95h-.9c-.514 0-.907-.12-1.18-.36-.274-.24-.41-.63-.41-1.17v-3.05h-.65v-.93h.65v-1.37h1.15v1.37h1.34v.93h-1.34Zm7.78-.93v5.51h-1.14v-.65a1.87 1.87 0 0 1-.71.54c-.286.127-.593.19-.92.19-.433 0-.823-.09-1.17-.27-.34-.18-.61-.447-.81-.8-.193-.353-.29-.78-.29-1.28v-3.24h1.13v3.07c0 .493.124.873.37 1.14.247.26.584.39 1.01.39.427 0 .764-.13 1.01-.39.254-.267.38-.647.38-1.14v-3.07h1.14Zm3.045.8c.166-.28.386-.497.66-.65.28-.16.61-.24.99-.24v1.18h-.29c-.447 0-.787.113-1.02.34-.227.227-.34.62-.34 1.18v2.9h-1.14v-5.51h1.14v.8Zm8.148 1.82c0 .207-.014.393-.04.56h-4.21c.033.44.196.793.49 1.06.293.267.653.4 1.08.4.613 0 1.046-.257 1.3-.77h1.23a2.5 2.5 0 0 1-.91 1.25c-.434.32-.974.48-1.62.48-.527 0-1-.117-1.42-.35a2.609 2.609 0 0 1-.98-1c-.234-.433-.35-.933-.35-1.5s.113-1.063.34-1.49c.233-.433.556-.767.97-1 .42-.233.9-.35 1.44-.35.52 0 .983.113 1.39.34.406.227.723.547.95.96.226.407.34.877.34 1.41Zm-1.19-.36c-.007-.42-.157-.757-.45-1.01-.294-.253-.657-.38-1.09-.38-.394 0-.73.127-1.01.38-.28.247-.447.583-.5 1.01h3.05Z"/>
  </g>
  <defs>
    <linearGradient id="b" x1="24.183" x2="148.643" y1="4.482" y2="199.181" gradientUnits="userSpaceOnUse">
      <stop stop-color="#11F542"/>
      <stop offset="1" stop-color="#40AFFF"/>
    </linearGradient>
    <filter id="a" width="201.065" height="201.065" x=".967" y=".682" color-interpolation-filters="sRGB" filterUnits="userSpaceOnUse">
      <feFlood flood-opacity="0" result="BackgroundImageFix"/>
      <feColorMatrix in="SourceAlpha" result="hardAlpha" values="0 0 0 0 0 0 0 0 0 0 0 0 0 0 0 0 0 0 127 0"/>
      <feOffset dy="4"/>
      <feGaussianBlur stdDeviation="10"/>
      <feComposite in2="hardAlpha" operator="out"/>
      <feColorMatrix values="0 0 0 0 0 0 0 0 0 0 0 0 0 0 0 0 0 0 0.1 0"/>
      <feBlend in2="BackgroundImageFix" result="effect1_dropShadow_4_164"/>
      <feBlend in="SourceGraphic" in2="effect1_dropShadow_4_164" result="shape"/>
    </filter>
  </defs>
</svg>
