<svg width="73" height="91" viewBox="0 0 73 91" fill="none" xmlns="http://www.w3.org/2000/svg">
<g clip-path="url(#clip0_18_89)">
<rect width="73" height="90" transform="translate(0 0.75)" fill="url(#paint0_linear_18_89)"/>
<path d="M37.7943 90.6842C38.0042 90.6341 38.7199 90.4265 39.3845 90.2255C40.2924 89.95 40.687 89.9077 40.971 90.0625C41.7734 90.4922 41.2275 90.7197 39.306 90.7472C38.2645 90.7584 37.5843 90.736 37.7943 90.6821V90.6842ZM44.0638 89.7407C43.593 89.0193 43.8298 88.7697 46.1563 87.5239C50.1878 85.3671 52.9506 83.3163 56.0046 80.2135C60.8201 75.3207 64.1669 69.2296 65.7657 62.4484C66.569 59.0402 66.5873 58.9985 67.2611 58.9985C68.4708 58.9985 68.4945 59.9969 67.3808 64.0764C64.553 74.4356 58.0466 82.8848 48.6759 88.3668C46.9873 89.3548 45.093 90.2391 44.6659 90.2391C44.5137 90.2391 44.2429 90.0142 44.064 89.7425L44.0638 89.7407ZM25.6292 89.1069C24.1574 88.976 23.4342 88.4848 23.6605 87.7697C23.8795 87.0771 24.3062 87.0013 26.7212 87.2209C28.4184 87.375 29.6836 87.37 31.679 87.1931C38.7987 86.5829 44.7867 84.2301 49.8528 80.0533C51.35 78.8196 51.8503 78.6841 52.3119 79.3907C52.7161 80.0101 52.518 80.3552 51.055 81.5828C44.4359 87.1356 34.9898 89.9284 25.6293 89.1002L25.6292 89.1069ZM54.2322 87.5316C62.64 81.2533 68.475 71.8397 70.4542 61.36C71.137 57.7456 71.3013 52.1925 70.8346 48.5128C70.2483 43.8899 68.9998 39.6349 67.0233 35.5221C64.8833 31.0696 63.4844 29.1156 61.0917 27.2357C56.0307 23.26 49.4303 22.6431 43.5447 25.5952C42.1302 26.3048 41.4427 26.3218 41.2303 25.6452C41.0098 24.9487 41.3254 24.5436 42.6209 23.8646C45.4365 22.3897 48.752 21.6907 52.0781 21.871C58.3244 22.2094 63.5326 25.4514 66.8713 31.0785C69.9481 36.2642 71.9958 42.1918 72.7358 48.0547C73.1783 51.5601 73.0488 57.9041 72.4683 61.1575C70.922 69.8242 66.8148 78.0469 61.0493 84.0187C59.8155 85.2968 59.2264 85.7336 57.6481 86.5418C56.0241 87.3743 53.3491 88.5105 53.0164 88.5105C52.9615 88.5105 53.5084 88.0674 54.2323 87.5277L54.2322 87.5316ZM18.9904 87.8049C16.1891 86.8405 14.39 86.1049 13.5498 85.5814C11.1357 84.0771 8.70105 81.9432 7.16575 79.9854C5.78681 78.2274 5.82553 78.1986 7.61481 79.6537C11.0118 82.4127 15.7958 84.892 19.9445 86.0437C20.9918 86.3354 21.4717 86.7168 21.4717 87.2604C21.4717 88.1608 20.5869 88.3555 18.9899 87.8053L18.9904 87.8049ZM25.5766 84.742C23.7985 84.5149 20.7621 83.8416 19.1813 83.3266C16.6639 82.5059 13.1099 80.7354 11.0716 79.2871C8.22622 77.2654 4.69822 73.5238 2.50701 70.2041C1.76505 69.0815 1.53727 68.5057 1.14011 66.7543C0.87728 65.5991 0.614533 64.1783 0.5544 63.5985L0.437504 62.5453L1.59728 64.8125C3.29305 68.1286 5.13543 70.8092 7.77066 73.7952C11.4508 77.9651 16.8653 80.9912 23.1883 82.4121C24.9472 82.8078 25.6706 82.8601 29.1969 82.854C32.5923 82.8486 33.4887 82.7755 35.0543 82.4332C38.7402 81.606 42.1421 80.1938 44.8218 78.3784C51.5754 73.8029 55.9669 67.3113 57.6166 59.4648C57.8759 58.2324 58.2023 57.149 58.342 57.0602C59.0251 56.626 59.8378 57.1387 59.8349 58.0076C59.8317 58.9486 58.9322 62.5243 58.2109 64.4639C54.1676 75.3375 44.6449 83.0998 33.4272 84.6665C32.043 84.8596 26.872 84.9097 25.5698 84.7449L25.5766 84.742ZM24.9084 80.2819C22.8025 79.8962 19.019 78.7366 18.2795 78.2501C17.7373 77.8933 17.718 77.1902 18.2352 76.7186C18.5811 76.4024 18.697 76.393 19.2375 76.6139C24.7801 78.8795 30.6978 79.3324 35.4599 77.8541C37.7744 77.1367 38.1194 77.104 38.5431 77.5747C39.3821 78.5065 38.189 79.2817 34.6432 80.1126C32.2081 80.685 27.5402 80.7647 24.9073 80.2824L24.9084 80.2819ZM13.8361 75.8356C11.3095 74.0945 8.86834 71.7256 7.24973 69.4441C4.98265 66.2491 2.41402 60.9531 0.835685 56.2196C0.0338421 53.8148 0.00391024 53.6444 3.76391e-05 51.3323C-0.0035481 49.0973 0.249965 44.7152 0.375896 44.851C0.404582 44.8798 0.574906 45.903 0.750714 47.1157C1.82454 54.5766 4.70403 62.2439 8.55447 67.8949C9.97744 69.9829 12.4919 72.5531 14.3734 73.8423C15.889 74.8799 16.2075 75.4382 15.6431 76.0643C15.1835 76.5725 14.8452 76.5324 13.8365 75.8355L13.8361 75.8356ZM42.6745 76.1205C41.9268 75.5951 42.2168 74.9314 43.6168 73.9663C45.3243 72.7888 48.3224 69.7402 49.479 68.0055C51.3843 65.1481 52.6186 62.2006 53.3938 58.6567C53.9406 56.1574 53.9859 51.2518 53.4849 48.841C52.846 45.7698 51.7101 42.8757 50.2729 40.6576C49.7313 39.8212 49.5401 39.3533 49.6275 39.0761C49.7802 38.5924 50.3904 38.2411 50.833 38.3835C51.4431 38.5783 53.117 41.4767 54.1062 44.0519C57.0018 51.59 56.169 60.5984 51.915 67.7554C50.1662 70.6976 48.2653 72.8223 45.4309 75.0026C43.7384 76.3042 43.2298 76.5109 42.675 76.1212L42.6745 76.1205ZM26.0538 75.8656C25.6206 75.4315 25.5889 75.2292 25.8698 74.7039C26.0487 74.3693 26.2894 74.3326 28.4219 74.3326C31.1006 74.3326 33.3117 73.9992 35.5122 73.2597C42.635 70.8702 47.8593 64.8226 49.2595 57.3459C49.6952 55.0189 49.5563 50.9278 48.965 48.6802C48.4342 46.6631 47.629 44.6925 46.6772 43.0813C45.0462 40.3204 45.6886 37.2339 48.2356 35.593C49.0181 35.0898 49.4257 34.967 50.5738 34.8938C53.7259 34.69 55.289 36.053 57.373 40.8178C58.9386 44.3977 59.6961 47.3525 60.0305 51.184C60.2227 53.3871 60.0366 54.0172 59.1944 54.0172C58.4642 54.0172 58.2641 53.5429 58.0997 51.4292C57.8172 47.7957 56.953 44.5001 55.4171 41.1995C53.8296 37.7882 52.8534 36.7678 51.1767 36.7678C49.4939 36.7678 48.2334 37.7074 47.8137 39.2711C47.5517 40.2473 47.6822 40.685 49.124 43.6674C50.7424 47.0154 51.2744 49.1343 51.3954 52.7141C51.5035 55.8985 51.2769 57.9072 50.5488 60.2417C47.5212 69.9453 38.917 76.2499 28.7017 76.2499C26.6904 76.2499 26.393 76.1998 26.0541 75.8658L26.0538 75.8656ZM55.8022 75.628C55.1735 75.1209 55.2823 74.7641 56.7365 72.5803C63.5671 62.3209 64.3883 49.475 58.9124 38.5406C57.7486 36.2169 56.8949 34.9599 55.9303 34.1506C54.9339 33.3142 54.8188 32.7265 55.5567 32.2412C55.9783 31.9629 56.1071 31.955 56.5297 32.1911C58.0567 33.0119 60.4356 36.6868 61.9536 40.5703C66.2891 51.6624 64.8839 64.0332 58.161 73.9586C56.9007 75.8191 56.4368 76.149 55.8022 75.6357V75.628ZM20.6027 74.6544C17.0437 73.2133 13.7463 70.7438 11.3698 67.7397C8.89867 64.616 5.81686 58.1882 4.48913 53.3886C3.87995 51.1873 4.12601 50.3413 5.28966 50.6347C5.7099 50.7395 5.83131 50.9641 6.19824 52.3399C7.63293 57.709 10.9352 64.3899 13.7139 67.5449C15.6023 69.6893 18.7599 71.8568 21.563 72.9333C23.2367 73.5762 23.3809 73.686 23.3809 74.3198C23.3809 75.4594 22.7726 75.5313 20.6025 74.6543L20.6027 74.6544ZM27.2947 71.8213C22.9634 71.4645 18.7729 69.4082 15.7342 66.1469C13.1615 63.3859 10.4929 58.2453 8.84544 52.8775C5.13814 40.7982 7.00396 27.0344 13.796 16.3575C17.1434 11.0953 21.9867 6.23997 27.3751 2.74502C28.8815 1.76877 30.3251 1.29076 32.8364 0.940156C35.4607 0.572776 35.4711 0.661883 32.9497 1.88891C27.3537 4.61483 23.1103 7.84492 19.2313 12.331C7.87903 25.4603 5.67719 44.1344 13.6642 59.5411C14.2826 60.7356 15.1084 62.194 15.4985 62.7841C17.8628 66.3602 21.9202 69.008 26.176 69.7519C26.9521 69.8878 28.4165 69.939 29.8614 69.8827C31.8855 69.7914 32.5408 69.689 34.0685 69.1757C35.0639 68.8412 36.3338 68.3054 36.8908 67.9839C37.8546 67.43 37.9262 67.4168 38.3742 67.7123C38.9287 68.0769 38.9932 68.7813 38.5111 69.2074C38.3274 69.3694 37.7044 69.7406 37.1271 70.032C34.2274 71.4918 30.8141 72.1144 27.2956 71.8251L27.2947 71.8213ZM27.0083 67.4945C22.8539 66.798 19.1879 64.3238 17.0535 60.7761C13.7877 55.3481 11.8327 49.1608 11.3613 42.7613C11.1107 39.3573 11.2559 37.4107 11.7821 37.128C12.3204 36.8379 13.0508 37.078 13.1564 37.5866C13.2009 37.8203 13.2841 39.5674 13.3271 41.4649C13.4143 45.2107 13.7596 47.436 14.7978 50.9439C15.9503 54.8393 18.3616 59.7187 20.1257 61.7257C21.9836 63.8394 25.3722 65.4406 28.4199 65.6443C34.1329 66.0273 39.3919 61.9642 40.6739 56.179C41.0013 54.7017 41.369 54.2679 42.0973 54.5003C42.7641 54.7145 42.8889 55.2426 42.5837 56.5645C41.2876 62.175 37.1062 66.3039 31.6606 67.35C30.314 67.6088 28.1001 67.6767 27.0087 67.4936L27.0083 67.4945ZM41.8509 65.3113C41.2924 64.9857 41.4686 64.3194 42.55 62.669C44.4214 59.8131 45.1881 57.2171 45.1896 53.7312C45.1907 50.7846 44.6642 48.679 43.2222 45.864C41.9296 43.3408 41.5159 41.9396 41.5191 40.0958C41.5237 37.4728 42.4715 35.2108 44.3675 33.2984C45.725 31.9291 46.9922 31.1802 48.7125 30.7303C50.415 30.2862 51.3706 30.3446 51.7476 30.924C52.0306 31.3576 52.0324 31.4456 51.7669 31.8545C51.5346 32.2102 51.2446 32.3304 50.3877 32.4178C47.9967 32.6647 46.1557 33.7755 44.8153 35.7777C43.7682 37.3417 43.5209 38.2136 43.5279 40.3157L43.5333 42.0407L44.8154 44.6282C46.577 48.1831 47.088 50.1922 47.1063 53.6362C47.1217 56.3706 46.787 58.2969 45.9123 60.5249C45.3945 61.8438 44.1367 64.0068 43.3929 64.8573C42.7955 65.5395 42.4276 65.6493 41.8513 65.3121L41.8509 65.3113ZM28.6707 63.1319C28.4291 63.0145 28.2242 62.7083 28.1906 62.4184C28.1164 61.7728 28.7498 61.301 29.6936 61.301C31.598 61.301 34.0526 59.8284 35.251 57.9671C36.2847 56.3613 36.6173 55.0895 36.515 53.1332C36.4369 51.6504 36.3533 51.3831 35.2723 49.1867C33.3995 45.3813 32.9242 43.4865 32.9296 39.8477C32.9343 36.6829 33.4344 34.5784 34.8572 31.7369C35.6595 30.1343 36.8884 28.3926 37.2912 28.2866C37.7911 28.1559 38.4598 28.4749 38.4851 28.8577C38.5294 29.5046 38.4302 29.745 37.762 30.6209C36.8799 31.7787 35.7292 34.2358 35.2864 35.9074C35.0174 36.9228 34.9309 37.9258 34.9309 40.028C34.9309 43.4753 35.1946 44.5695 36.8479 47.9819C38.3083 50.9962 38.4601 51.5332 38.4615 53.69C38.4642 57.886 35.7528 61.6693 31.8782 62.8761C30.7859 63.2156 29.1089 63.3504 28.6709 63.1321L28.6707 63.1319ZM22.6038 60.7746C19.9213 58.3557 17.0057 51.6887 16.0314 45.746C14.6471 37.3018 16.5797 28.0066 21.2208 20.7829C22.772 18.3688 23.1606 17.9582 23.8315 18.0242C24.275 18.0743 24.4689 18.2114 24.6016 18.5927C24.7568 19.0385 24.6565 19.267 23.8194 20.4135C18.4497 27.7482 16.3229 37.775 18.2085 46.8666C19.2433 51.8558 21.8998 57.6473 23.9779 59.4438C24.9339 60.271 25.174 60.9591 24.6792 61.4556C24.2453 61.8909 23.6107 61.6831 22.6038 60.7761L22.6038 60.7746ZM27.4232 58.7175C26.1589 58.32 25.1578 57.5204 24.4488 56.3383C21.8557 52.0134 20.2599 46.9812 20.0032 42.3199C19.9068 40.5734 19.9367 40.2553 20.2183 39.9719C20.6391 39.5511 21.0035 39.5578 21.4413 40.0007C21.7107 40.2714 21.8199 40.7717 21.9119 42.1567C22.2102 46.6657 23.9821 52.1505 26.2093 55.4603C27.6852 57.6536 30.7402 57.4993 31.9374 55.1701C32.5698 53.9405 32.4157 52.9739 31.2312 50.7434C29.2404 46.9945 28.4334 43.4554 28.5916 39.1679C28.8023 33.4554 30.9148 28.5185 34.9437 24.3227C39.2359 19.8525 44.6947 17.552 51.0804 17.5223C53.8521 17.5115 54.3103 17.6397 54.3045 18.445C54.2977 19.3585 54.1146 19.4172 51.2149 19.4486C46.107 19.4987 41.9337 20.9395 38.1964 23.9333C30.1465 30.382 28.1112 41.794 33.4164 50.7353C34.806 53.0774 34.4441 55.8184 32.5154 57.5593C31.0402 58.8908 29.2596 59.2975 27.4234 58.7224L27.4232 58.7175ZM67.3291 56.6795C66.8441 56.4991 66.8405 56.4818 66.8934 54.6895C67.0053 50.8922 66.1345 45.3538 64.8266 41.5461C62.5723 34.9823 59.9513 31.1687 56.5435 29.494C54.4907 28.4851 53.0829 28.1445 50.9665 28.1445C47.646 28.1445 45.0078 29.2397 42.6442 31.5981C40.9983 33.2405 39.7706 35.434 39.3632 37.4602C39.0957 38.7901 38.7891 39.2608 38.1907 39.2608C37.2243 39.2608 37.0925 38.4362 37.7047 36.2188C39.1752 30.8914 43.9173 26.8637 49.4578 26.2367C54.733 25.6408 59.9061 28.1271 62.7976 32.6506C64.0677 34.6377 65.9248 38.6827 66.8003 41.369C68.0953 45.3434 68.815 49.8747 68.8154 54.0577C68.8156 56.3905 68.4217 57.0854 67.329 56.6795H67.3291ZM28.6609 54.8592C27.9146 54.0515 26.156 50.4838 25.5066 48.4606C24.5738 45.5545 24.2749 43.5555 24.2743 40.2192C24.2737 36.6732 24.6058 34.5854 25.6917 31.307C27.3828 26.2015 30.3842 21.9451 34.4747 18.8517C36.529 17.298 37.1135 17.1134 37.6032 17.8637C38.0009 18.4728 37.8173 18.8452 36.769 19.5612C32.3382 22.5849 29.2566 26.72 27.4952 32.0054C26.5819 34.7455 26.1953 37.1506 26.1901 40.1234C26.1819 44.9488 27.296 49.095 29.5979 52.803C30.3665 54.0405 30.4753 54.3333 30.3262 54.7614C30.0727 55.4893 29.2851 55.5351 28.6608 54.8662L28.6609 54.8592ZM41.0942 51.7667C40.9342 51.5823 40.6191 50.848 40.3939 50.1376C40.1687 49.4266 39.5628 48.046 39.0472 47.071C38.5319 46.0961 37.9218 44.6688 37.6921 43.8996C37.292 42.5599 37.2885 42.485 37.6114 42.1266C37.9933 41.703 38.7007 41.6329 38.9926 41.9908C39.1007 42.1226 39.4175 42.9213 39.6981 43.7639C39.9788 44.6082 40.4418 45.6852 40.7271 46.1595C41.4367 47.3395 42.1888 49.1198 42.4849 50.3225C42.7085 51.2308 42.6989 51.3576 42.3808 51.7121C41.9502 52.1902 41.479 52.2114 41.094 51.7622L41.0942 51.7667ZM3.52751 48.3647C3.07843 47.8209 2.70483 44.0946 2.70354 40.1234C2.70146 35.9282 3.08775 32.2543 3.7566 30.0741C4.8799 26.4237 7.50952 20.9674 9.92229 17.2836C11.243 15.2669 13.2017 12.62 13.3731 12.62C13.4118 12.62 12.8863 13.4615 12.1991 14.4887C8.49382 20.028 5.66783 27.8624 4.85361 34.8525C4.56317 37.3347 4.56857 42.9637 4.86081 45.2983C5.17456 47.7883 5.17167 48.2667 4.85003 48.4744C4.43588 48.7383 3.7944 48.6861 3.52967 48.357L3.52751 48.3647ZM20.4303 36.3948C20.1071 36.037 20.1105 35.9334 20.4952 34.0116C21.7498 27.7533 24.8437 22.0591 29.4248 17.5765C33.9776 13.1216 39.3036 10.3754 45.6207 9.22456C47.5361 8.87572 52.7685 8.77481 54.9682 9.04708C56.2751 9.2062 56.3194 9.2314 57.5454 10.4545L58.7928 11.6986L58.1246 11.5939C57.7572 11.5287 56.7263 11.3419 55.8338 11.1653C54.7029 10.9403 53.1988 10.8423 50.8704 10.8359C47.176 10.8287 45.4524 11.0724 42.2059 12.0709C32.2362 15.1393 24.3928 24.052 22.3221 34.6653C22.1475 35.5605 21.9168 36.402 21.8098 36.5341C21.5193 36.8919 20.8116 36.8242 20.4296 36.3984L20.4303 36.3948ZM12.0362 34.5515C11.6398 34.153 11.6593 33.7727 12.1926 31.4987C13.0594 27.8032 14.0477 25.0194 15.5769 21.9659C19.4007 14.3302 26.3529 7.55181 34.009 3.99397C35.1955 3.44238 35.2936 3.4268 35.7309 3.7139C36.0675 3.93602 36.1783 4.16087 36.1353 4.53455C36.0882 4.95147 35.8423 5.17098 34.8352 5.69377C30.7146 7.83145 27.2415 10.3034 24.4676 13.0729C21.1019 16.433 19.0133 19.3701 16.9933 23.5835C15.5695 26.5533 14.7759 28.8464 14.0296 32.1467C13.7341 33.4523 13.3769 34.593 13.235 34.6833C12.8376 34.9353 12.367 34.8849 12.0362 34.5515H12.0362ZM68.0675 28.4977C66.0313 25.4068 62.6815 22.6125 59.2707 21.1602C56.8198 20.1174 56.6997 20.0389 56.6343 19.4778C56.5899 19.1093 56.7032 18.8858 57.0409 18.6623C57.477 18.3747 57.5896 18.3869 58.7986 18.8437C60.5814 19.5181 62.1166 20.3226 63.7267 21.4284C66.0251 23.0069 66.6153 23.6568 67.3895 25.4611C68.0565 27.0156 69.2116 30.0609 69.1342 30.0609C69.113 30.0609 68.6339 29.3578 68.0675 28.4973L68.0675 28.4977ZM59.6535 16.7226C56.56 15.5282 52.0063 14.7816 49.2708 15.0203C47.342 15.1877 45.0815 15.6489 43.4861 16.1991C41.8173 16.7754 41.266 16.6249 41.3625 15.6254C41.4328 14.8923 41.9477 14.5982 44.4179 13.8847C48.6262 12.6681 53.4053 12.7974 58.4551 14.2676C61.7355 15.2216 62.6622 15.8853 62.0137 16.8149C61.652 17.3325 61.1871 17.3142 59.6535 16.7235V16.7226ZM27.8101 14.4984C27.4839 14.1715 27.5268 13.4686 27.896 13.0983C30.1245 10.8609 34.7207 8.0829 38.4629 6.71166C41.8417 5.47409 46.3015 4.57023 49.037 4.57023C50.2288 4.57023 50.3836 4.62027 51.6685 5.48113L53.0336 6.39201L49.8049 6.52269C45.5036 6.68865 43.0381 7.15255 39.131 8.52891C36.1447 9.58093 32.3821 11.7624 30.0373 13.8001C28.9541 14.7423 28.2637 14.9593 27.8106 14.5045L27.8101 14.4984ZM38.8824 3.57369C38.5756 3.26517 38.5911 2.36875 38.9086 2.10545C39.0486 1.98809 39.7272 1.74478 40.4168 1.5633C41.6076 1.25118 41.7411 1.25118 43.0736 1.5705C43.8454 1.7559 44.7344 2.02024 45.0493 2.15722C45.613 2.39878 45.5994 2.4067 44.1903 2.64869C43.4028 2.78441 42.0712 3.09844 41.2313 3.34396C39.4751 3.86164 39.1982 3.88888 38.8832 3.57111L38.8824 3.57369Z" fill="url(#paint1_linear_18_89)"/>
</g>
<defs>
<linearGradient id="paint0_linear_18_89" x1="-5.3924" y1="-28.5035" x2="63.3593" y2="99.5387" gradientUnits="userSpaceOnUse">
<stop stop-color="white"/>
<stop offset="1" stop-color="white" stop-opacity="0"/>
</linearGradient>
<linearGradient id="paint1_linear_18_89" x1="36.5" y1="0.75" x2="36.5" y2="90.75" gradientUnits="userSpaceOnUse">
<stop stop-color="#11F542"/>
<stop offset="1" stop-color="#40AFFF"/>
</linearGradient>
<clipPath id="clip0_18_89">
<rect width="73" height="90" fill="white" transform="translate(0 0.75)"/>
</clipPath>
</defs>
</svg>
